{"glyphs":{":":{"x_min":0,"x_max":219,"ha":219,"o":"m 74 357 q 74 380 91 396 q 107 413 130 413 q 153 413 169 396 q 186 380 186 357 q 186 334 169 318 q 153 302 130 302 q 107 302 91 318 q 74 334 74 357 z m 74 94 q 74 117 91 134 q 107 150 130 150 q 153 150 169 134 q 186 117 186 94 q 186 72 169 55 q 153 39 130 39 q 107 39 91 55 q 74 72 74 94 z"},"$":{"x_min":0,"x_max":438,"ha":438,"o":"m 91 10 q 83 10 76 4 q 68 -1 57 -1 q 57 30 41 146 l 85 149 q 114 37 194 26 l 194 259 q 171 267 153 276 q 135 284 113 299 q 91 314 77 332 q 62 350 52 376 q 42 403 42 434 q 42 464 56 490 q 70 516 93 532 q 116 548 142 558 q 167 568 194 571 l 194 627 l 234 627 l 234 571 q 252 570 279 568 q 306 565 317 564 q 329 563 347 564 q 349 534 367 421 l 324 417 l 318 435 q 303 487 286 510 q 269 532 234 536 l 234 333 q 254 327 275 317 q 295 307 319 291 q 342 275 360 256 q 378 237 390 211 q 402 185 402 156 q 402 125 394 97 q 385 70 367 46 q 348 22 314 7 q 280 -8 234 -11 l 234 -81 l 194 -81 l 194 -11 q 164 -9 131 0 q 98 10 91 10 z m 234 27 q 266 33 288 56 q 310 79 310 127 q 310 202 234 242 z m 194 535 q 161 530 144 505 q 126 480 126 438 q 126 413 146 389 q 166 365 194 349 z"},"?":{"x_min":0,"x_max":430,"ha":430,"o":"m 127 571 q 127 561 132 546 q 136 531 136 517 q 136 499 121 487 q 106 476 83 476 q 62 476 44 492 q 26 508 26 534 q 26 559 39 578 q 51 597 79 620 q 126 659 216 659 q 301 659 351 617 q 401 575 401 506 q 401 484 393 464 q 386 444 376 429 q 367 415 349 398 q 331 380 320 372 l 288 348 q 275 339 266 331 q 258 323 248 309 q 237 294 232 274 q 227 254 227 229 l 227 206 q 227 188 220 180 q 213 172 192 172 q 170 172 164 180 q 158 188 158 206 l 158 231 q 158 251 160 266 q 162 280 168 302 q 174 325 190 348 q 206 371 231 394 q 286 442 286 513 q 286 561 266 592 q 246 623 206 623 q 173 623 150 607 q 127 592 127 571 z m 136 45 q 136 68 153 84 q 169 101 192 101 q 215 101 231 84 q 248 68 248 45 q 248 22 231 6 q 215 -10 192 -10 q 169 -10 153 6 q 136 22 136 45 z"},"<":{"x_min":0,"x_max":512,"ha":512,"o":"m 153 240 l 471 124 l 471 62 l 42 218 l 42 262 l 471 418 l 471 356 z"},"'":{"x_min":0,"x_max":215,"ha":215,"o":"m 98 421 l 83 425 q 51 585 51 591 q 51 610 69 628 q 86 645 116 645 q 131 645 141 642 q 150 639 155 633 q 159 627 160 622 q 161 616 161 608 q 161 601 152 556 l 133 469 l 124 427 z"},"=":{"x_min":0,"x_max":551,"ha":551,"o":"m 493 198 l 493 142 l 59 142 l 59 198 z m 493 323 l 493 266 l 59 266 l 59 323 z"},"a":{"x_min":0,"x_max":476,"ha":476,"o":"m 281 48 q 215 -10 156 -10 q 92 -10 64 16 q 36 42 36 95 q 36 124 48 146 q 60 168 85 184 q 110 201 138 212 q 167 223 210 236 l 282 257 q 282 294 279 321 q 275 348 270 364 q 264 380 255 390 q 246 399 236 403 q 226 406 212 406 q 182 406 162 396 q 141 387 141 371 q 141 360 144 347 q 147 333 147 328 q 147 316 131 303 q 115 290 95 290 q 69 290 59 301 q 48 312 48 332 q 48 360 77 387 q 106 414 148 429 q 189 444 226 444 q 260 444 287 437 q 313 430 338 412 q 363 394 376 358 q 390 323 390 271 l 390 126 q 390 109 391 99 q 391 90 393 77 q 395 64 399 58 q 403 51 411 47 q 419 42 430 42 q 438 42 444 44 q 450 47 453 50 l 457 56 q 459 58 461 58 q 464 58 469 51 q 474 43 474 38 q 474 35 463 24 q 452 13 429 1 q 406 -10 381 -10 q 337 -10 315 4 q 292 18 283 48 z m 282 85 l 282 219 l 225 202 q 176 188 158 166 q 141 144 141 110 q 141 45 204 45 q 217 45 240 57 q 262 69 282 85 z"},"L":{"x_min":0,"x_max":538,"ha":538,"o":"m 100 569 q 100 593 87 603 q 75 613 45 613 l 31 613 q 22 613 22 621 l 22 645 l 24 647 q 122 645 161 645 l 296 647 l 298 645 l 298 621 q 298 613 291 613 l 276 613 q 247 613 234 602 q 222 591 222 569 l 222 92 q 222 70 231 58 q 240 46 256 46 l 342 46 q 370 46 393 58 q 416 70 431 91 q 447 112 457 134 q 466 156 473 181 l 512 173 q 490 66 488 0 l 145 0 l 26 -2 l 22 0 l 22 20 q 22 32 38 32 l 70 32 q 88 32 94 41 q 100 49 100 72 z"},"3":{"x_min":0,"x_max":490,"ha":490,"o":"m 234 570 q 221 570 207 566 q 193 563 178 555 q 163 548 154 532 q 144 517 144 495 q 144 482 141 471 q 139 460 127 450 q 116 440 97 440 q 85 440 77 444 q 68 447 64 452 q 60 457 57 463 q 55 469 54 472 q 54 475 54 477 q 54 489 59 504 q 64 520 79 539 q 93 558 115 573 q 136 588 172 599 q 208 610 253 610 q 286 610 312 603 q 338 595 354 584 q 370 572 380 557 q 391 542 395 528 q 399 514 399 500 q 399 489 394 474 q 389 458 378 438 q 367 417 344 397 q 321 377 290 364 q 315 361 339 350 q 364 338 385 319 q 405 300 418 270 q 431 240 431 204 q 431 153 412 112 q 394 70 361 44 q 329 17 287 3 q 245 -11 197 -11 q 163 -11 128 -3 q 93 5 68 22 q 43 38 43 58 q 43 72 58 83 q 74 95 95 95 q 116 95 127 89 q 137 82 145 69 q 168 30 210 30 q 219 30 231 34 q 243 38 258 49 q 273 61 286 78 q 298 95 306 124 q 315 153 315 190 q 315 315 208 315 q 201 315 156 305 l 150 345 q 192 355 222 371 q 252 388 267 407 q 283 427 289 446 q 296 464 296 484 q 296 524 277 547 q 258 570 234 570 z"},";":{"x_min":0,"x_max":219,"ha":219,"o":"m 64 357 q 64 380 81 396 q 97 413 120 413 q 143 413 159 396 q 176 380 176 357 q 176 334 159 318 q 143 302 120 302 q 97 302 81 318 q 64 334 64 357 z m 125 102 q 154 102 171 79 q 188 55 188 -6 q 188 -47 152 -87 q 116 -128 62 -137 q 46 -127 55 -106 q 90 -97 115 -71 q 139 -44 139 -27 q 139 -3 105 1 q 84 5 73 16 q 62 27 62 50 q 62 72 80 87 q 97 102 125 102 z"},"J":{"x_min":0,"x_max":380,"ha":380,"o":"m 70 -122 q 81 -122 90 -118 q 100 -115 110 -102 q 121 -90 128 -69 q 135 -47 139 -9 q 144 29 144 81 l 144 554 q 144 589 129 599 q 114 609 73 612 l 53 613 q 49 613 47 615 q 44 618 44 621 l 44 645 l 46 647 q 140 645 184 645 q 249 645 343 647 l 345 645 l 345 621 q 345 613 337 613 l 320 612 q 290 610 278 601 q 266 590 266 569 l 266 103 q 266 13 240 -44 q 214 -101 166 -138 q 137 -163 97 -173 q 57 -182 27 -182 q -2 -182 -26 -177 q -49 -171 -66 -156 q -83 -142 -83 -119 q -83 -99 -66 -85 q -48 -71 -32 -71 q -13 -71 1 -77 q 16 -83 22 -89 q 29 -96 37 -107 q 44 -116 51 -119 q 58 -122 70 -122 z"},"V":{"x_min":0,"x_max":636,"ha":636,"o":"m 427 613 q 424 613 421 615 q 419 618 419 621 l 419 645 l 421 646 q 508 645 547 645 l 635 646 l 637 645 l 637 621 q 637 613 629 613 q 588 613 575 602 q 562 591 546 549 l 345 11 q 341 1 330 -6 q 319 -12 311 -12 q 302 -12 292 -6 q 281 0 278 11 l 88 554 q 75 590 60 601 q 45 613 8 613 q 5 613 2 615 q 0 618 0 621 l 0 645 l 2 646 q 99 645 138 645 l 282 646 l 284 645 l 284 621 q 284 613 276 613 q 229 613 213 604 q 197 595 205 572 l 330 216 l 341 185 l 353 213 l 483 562 q 495 594 485 603 q 475 613 427 613 z"},"\"":{"x_min":0,"x_max":366,"ha":366,"o":"m 110 421 l 95 425 q 63 585 63 591 q 63 610 81 628 q 98 645 128 645 q 143 645 153 642 q 162 639 166 633 q 170 627 172 622 q 173 616 173 608 q 173 601 164 556 l 146 469 l 136 427 z m 241 421 l 226 425 q 194 585 194 591 q 194 610 211 628 q 229 645 259 645 q 287 645 296 635 q 304 625 304 608 q 304 601 295 556 l 276 469 l 267 427 z"},"7":{"x_min":0,"x_max":490,"ha":490,"o":"m 128 594 l 437 594 l 441 586 l 383 441 l 330 308 l 290 204 q 266 142 249 95 l 216 -2 l 122 -13 l 117 0 l 225 231 q 321 439 352 517 l 159 517 q 145 517 137 515 q 129 513 121 506 q 112 500 106 484 q 100 469 94 444 l 55 452 q 69 511 74 540 q 80 569 81 600 l 89 600 q 97 594 128 594 z"},"S":{"x_min":0,"x_max":475,"ha":475,"o":"m 382 631 q 386 571 403 479 l 363 474 q 355 503 345 525 q 336 547 320 571 q 305 594 281 606 q 257 619 227 619 q 181 619 159 591 q 137 563 137 517 q 137 495 150 472 q 163 450 182 434 q 202 417 221 406 q 240 395 258 388 q 286 378 309 367 q 333 356 358 338 q 384 320 401 300 q 418 279 430 249 q 441 219 441 184 q 441 88 386 39 q 331 -10 241 -10 q 198 -10 168 -6 q 138 -2 123 1 q 107 5 99 5 q 89 5 75 2 q 62 0 53 0 q 52 38 34 175 l 74 178 q 89 111 129 71 q 169 31 220 31 q 334 31 334 145 q 334 190 311 225 q 288 260 243 278 q 42 357 42 485 q 42 528 59 562 q 76 597 103 617 q 130 637 162 648 q 194 658 228 658 q 269 658 294 653 q 319 648 341 641 q 362 634 382 631 z"},"}":{"x_min":0,"x_max":306,"ha":306,"o":"m 101 -68 l 101 111 q 101 174 114 202 q 127 230 166 248 q 150 255 139 263 q 128 271 121 283 q 114 294 110 304 q 106 313 104 331 q 102 348 102 361 q 101 374 101 398 l 101 561 q 101 624 87 650 q 66 687 37 693 l 37 711 q 144 708 170 673 q 201 631 201 546 l 201 373 q 201 322 215 291 q 229 260 267 251 l 267 246 q 247 240 233 228 q 220 216 213 198 q 206 181 204 164 q 201 147 201 126 l 201 -61 q 201 -138 168 -178 q 139 -213 37 -216 l 37 -197 q 68 -189 88 -154 q 101 -130 101 -68 z"},"Z":{"x_min":0,"x_max":624,"ha":624,"o":"m 572 0 l 39 0 q 20 0 20 15 q 20 28 28 38 l 417 579 q 420 584 422 587 q 424 590 425 594 q 427 598 424 600 q 421 602 415 602 l 200 602 q 178 602 161 596 q 145 590 134 581 q 123 573 113 556 q 104 539 98 525 q 93 511 85 486 l 46 491 q 62 575 68 658 q 83 657 103 651 q 123 645 149 645 l 506 645 q 557 650 569 650 q 583 650 587 648 q 591 646 591 640 q 591 624 567 591 l 193 72 q 182 58 184 51 q 187 44 209 44 l 432 44 q 460 44 481 53 q 501 62 516 80 q 530 99 540 120 q 549 141 557 170 l 598 165 q 576 64 572 0 z"},"x":{"x_min":0,"x_max":521,"ha":521,"o":"m 183 73 q 175 62 173 53 q 171 45 176 41 q 181 37 186 35 q 191 34 200 32 q 208 31 208 24 l 208 0 l 204 -2 q 138 0 95 0 l 17 -2 l 15 0 l 15 22 q 15 30 26 32 q 83 40 116 79 l 208 193 q 213 199 214 202 q 214 205 211 208 l 122 335 q 75 402 31 402 q 21 402 21 409 l 21 434 l 24 436 q 85 434 125 434 l 250 436 l 253 434 l 253 410 q 253 403 245 402 q 215 399 211 392 q 207 385 223 360 l 271 290 q 276 282 279 282 q 282 282 286 287 l 336 359 q 352 380 349 390 q 345 400 319 402 q 312 402 312 409 l 312 433 l 315 436 q 387 434 432 434 l 500 436 l 502 434 l 502 411 q 502 403 491 402 q 434 396 401 353 l 312 245 q 308 239 314 230 l 402 99 q 425 64 446 51 q 466 37 495 32 q 505 31 505 25 l 505 0 l 502 -2 q 440 0 401 0 l 279 -2 l 275 0 l 275 24 q 275 30 283 32 q 302 35 309 38 q 316 42 316 49 q 316 57 306 72 l 264 136 q 255 151 251 155 q 247 158 242 154 q 237 150 225 133 z"},")":{"x_min":0,"x_max":315,"ha":315,"o":"m 279 251 q 279 120 214 -3 q 149 -126 45 -216 l 17 -182 q 164 -9 164 251 q 164 326 151 394 q 139 463 122 507 q 106 552 82 593 q 59 634 45 651 q 32 668 17 685 l 47 717 q 93 677 131 632 q 168 586 192 547 q 216 508 233 465 q 251 422 259 392 q 268 361 272 328 q 277 296 278 281 q 279 266 279 251 z"},"&":{"x_min":0,"x_max":729,"ha":729,"o":"m 270 523 q 270 506 281 477 q 292 447 311 420 l 344 446 q 354 456 369 471 q 384 486 391 499 q 397 513 397 527 q 397 568 382 590 q 366 613 337 613 q 310 613 290 590 q 270 567 270 523 z m 396 122 q 292 261 253 322 q 198 287 178 253 q 157 218 157 170 q 157 107 187 69 q 216 31 256 31 q 296 31 329 52 q 361 73 396 122 z m 554 355 q 572 398 514 402 q 511 402 508 405 q 506 407 506 409 l 506 433 l 510 436 q 573 434 613 434 l 696 436 l 698 434 l 698 411 q 698 408 695 405 q 691 402 687 402 q 666 400 649 387 q 633 373 612 341 l 491 156 l 503 136 l 516 115 l 528 96 q 536 84 542 78 q 547 71 554 64 q 562 57 568 54 q 575 51 581 51 q 604 51 619 62 q 634 74 652 109 l 684 86 q 667 55 651 35 q 635 16 618 6 q 602 -3 588 -7 q 574 -10 555 -10 q 519 -10 493 8 q 467 26 431 78 q 406 50 383 32 q 360 15 325 2 q 290 -10 247 -10 q 201 -10 164 -1 q 127 8 99 27 q 70 46 55 77 q 39 108 39 150 q 39 207 80 254 q 121 300 232 364 q 200 413 185 450 q 170 487 170 521 q 170 544 182 567 q 194 590 216 610 q 237 629 272 642 q 306 654 347 654 q 417 654 453 624 q 490 594 490 537 q 490 500 449 455 q 408 410 342 372 q 376 313 447 214 q 450 209 455 208 q 460 206 463 210 q 492 249 519 291 q 545 333 554 355 z"},"_":{"x_min":0,"x_max":486,"ha":486,"o":"m 482 -103 l 482 -154 l 5 -154 l 5 -103 z"},"v":{"x_min":0,"x_max":527,"ha":527,"o":"m 433 352 l 315 41 q 303 10 292 -1 q 282 -12 265 -12 q 245 -12 231 -1 q 218 11 206 40 l 91 334 q 85 349 81 358 q 76 367 68 378 q 60 388 47 395 q 35 400 19 402 q 9 403 9 409 l 9 434 l 12 436 q 73 434 113 434 l 236 436 l 240 434 l 240 410 q 240 406 237 404 q 234 402 232 402 l 215 400 q 193 397 189 388 q 186 379 195 357 l 294 105 l 384 358 q 391 377 381 386 q 372 393 341 401 l 337 402 q 329 404 329 409 l 329 433 l 333 436 q 396 434 436 434 l 513 436 l 515 434 l 515 411 q 515 408 512 405 q 508 402 504 402 q 487 400 475 396 q 464 393 452 382 q 440 371 433 352 z"},"O":{"x_min":0,"x_max":730,"ha":730,"o":"m 351 617 q 325 617 299 607 q 274 597 250 574 q 226 551 208 518 q 190 485 179 436 q 168 387 168 328 q 168 191 230 111 q 292 31 384 31 q 461 31 512 107 q 562 183 562 310 q 562 384 545 443 q 528 503 499 540 q 469 578 432 597 q 394 617 351 617 z m 694 329 q 694 229 654 153 q 614 76 539 33 q 463 -10 364 -10 q 295 -10 236 13 q 176 35 132 76 q 88 117 62 177 q 37 238 37 311 q 37 408 79 487 q 120 566 195 612 q 270 658 363 658 q 416 658 465 643 q 515 628 556 600 q 597 571 628 531 q 659 492 677 440 q 694 388 694 329 z"},"(":{"x_min":0,"x_max":315,"ha":315,"o":"m 36 253 q 36 384 101 507 q 167 631 270 720 l 298 686 q 151 513 151 253 q 151 178 164 110 q 176 41 193 -3 q 209 -48 233 -89 q 256 -130 270 -147 q 283 -164 298 -181 l 268 -213 q 222 -173 184 -128 q 146 -83 123 -43 q 99 -4 82 39 q 64 82 56 112 q 47 143 42 176 q 38 208 37 223 q 36 238 36 253 z"},"C":{"x_min":0,"x_max":666,"ha":666,"o":"m 371 -10 q 305 -10 249 9 q 193 27 154 58 q 115 89 87 131 q 60 173 47 219 q 34 266 34 315 q 34 387 61 451 q 88 516 134 561 q 179 606 241 632 q 304 658 372 658 q 417 658 455 651 q 492 645 512 636 q 532 627 553 621 q 574 614 590 614 q 595 542 612 445 l 574 437 q 564 469 554 493 q 543 516 527 541 q 510 566 490 582 q 469 597 439 607 q 409 617 372 617 q 342 617 313 607 q 284 597 257 574 q 230 552 209 520 q 189 487 177 439 q 164 392 164 334 q 164 279 177 227 q 190 175 215 131 q 239 87 280 61 q 320 34 370 34 q 433 34 489 62 q 545 89 601 153 l 631 129 q 526 -10 371 -10 z"},"W":{"x_min":0,"x_max":998,"ha":998,"o":"m 312 -12 q 289 -12 276 -1 q 263 11 254 35 l 80 562 q 73 583 59 598 q 44 613 25 613 l 12 613 q 0 613 0 621 l 0 644 l 2 646 q 75 645 113 645 l 254 646 l 257 644 l 257 622 q 257 613 248 613 q 216 613 205 605 q 195 598 204 572 l 321 218 l 344 146 l 367 216 l 441 442 q 448 465 448 480 q 448 494 443 508 l 422 572 q 410 613 357 613 l 354 613 q 342 613 342 621 l 342 644 l 344 646 q 400 645 440 645 l 610 646 l 612 644 l 612 620 q 612 617 609 615 q 606 613 604 613 q 593 613 586 612 q 580 612 571 610 q 562 609 558 605 q 554 601 550 595 q 547 588 548 578 q 549 568 553 554 l 667 207 l 688 139 l 714 215 l 832 569 q 841 595 827 604 q 812 613 774 613 q 771 613 769 615 q 766 618 766 620 l 766 644 l 769 646 q 850 645 892 645 l 976 646 l 978 645 l 978 621 q 978 613 966 613 l 955 613 q 926 613 914 602 q 902 592 891 560 l 720 44 q 710 13 697 1 q 684 -12 663 -12 q 634 -12 620 0 q 606 12 598 39 l 489 367 q 484 380 483 380 q 481 380 479 370 l 368 33 q 362 12 346 0 q 331 -12 312 -12 z"},"A":{"x_min":0,"x_max":699,"ha":699,"o":"m 253 288 l 403 288 l 320 514 l 234 300 q 234 292 237 290 q 240 288 253 288 z m 148 79 q 143 64 142 54 q 142 44 154 39 q 167 33 195 33 q 207 33 211 31 q 216 29 216 23 l 216 3 l 211 -1 q 119 1 95 1 l 10 -1 l 2 2 l 2 23 q 2 30 7 31 q 11 33 22 33 q 39 33 58 48 q 77 62 89 91 l 312 627 q 318 643 331 651 q 343 658 354 658 q 387 658 399 627 l 601 91 q 612 61 624 47 q 636 33 654 33 l 682 33 q 693 33 695 31 q 697 29 697 23 l 697 3 l 692 -1 q 596 1 558 1 l 414 -1 l 406 4 l 406 23 q 406 33 432 33 l 459 33 q 484 33 484 59 q 484 70 482 73 l 420 241 l 236 241 q 220 241 215 239 q 209 237 205 227 z"},"f":{"x_min":0,"x_max":336,"ha":336,"o":"m 99 75 l 99 387 l 53 387 q 37 387 31 389 q 26 392 26 397 l 26 411 q 26 419 36 427 q 47 434 70 434 l 99 434 l 99 444 q 99 503 115 553 q 131 602 157 633 q 184 665 217 681 q 250 698 286 698 q 316 698 341 692 q 366 686 381 677 q 396 668 406 657 q 417 647 421 638 q 425 630 425 624 q 425 604 412 589 q 399 574 379 574 q 341 574 318 614 q 295 656 267 656 q 259 656 252 653 q 246 649 237 638 q 229 627 223 610 q 217 592 213 560 q 209 527 209 485 l 209 434 l 305 434 q 318 434 322 432 q 325 429 325 424 l 325 404 q 325 387 290 387 l 209 387 l 209 78 q 209 40 263 34 l 281 32 q 289 30 289 23 l 289 0 l 287 -2 q 191 0 152 0 l 31 -2 l 29 0 l 29 23 q 29 31 37 32 l 51 34 q 77 38 88 47 q 99 55 99 75 z"},"Q":{"x_min":0,"x_max":730,"ha":730,"o":"m 351 617 q 325 617 299 607 q 274 597 250 574 q 226 551 208 518 q 190 485 179 436 q 168 387 168 328 q 168 191 230 111 q 292 31 384 31 q 461 31 512 107 q 562 183 562 310 q 562 384 545 443 q 528 503 499 540 q 469 578 432 597 q 394 617 351 617 z m 157 -130 q 185 -96 226 -62 q 267 -29 311 -6 q 190 10 114 95 q 37 181 37 311 q 37 408 79 487 q 120 566 195 612 q 270 658 363 658 q 416 658 465 643 q 515 628 556 600 q 597 571 628 531 q 659 492 677 440 q 694 388 694 329 q 694 188 615 95 q 535 3 400 -8 q 345 -28 288 -70 q 292 -70 298 -70 q 334 -70 375 -83 q 416 -96 446 -111 q 476 -126 512 -139 q 548 -152 577 -152 q 601 -152 625 -143 q 649 -134 664 -115 l 681 -137 q 651 -180 617 -200 q 583 -219 537 -219 q 501 -219 467 -209 q 433 -200 406 -186 l 355 -158 q 330 -144 303 -134 q 276 -124 251 -124 q 234 -124 214 -138 q 194 -160 178 -183 l 139 -153 q 146 -142 157 -130 z"},"w":{"x_min":0,"x_max":778,"ha":778,"o":"m 195 357 l 289 100 l 360 277 l 329 355 q 319 380 305 389 q 292 399 268 402 q 258 403 258 409 l 258 434 l 261 436 q 323 434 363 434 l 485 436 l 489 434 l 489 410 q 489 403 480 402 l 463 400 q 440 397 437 388 q 433 378 442 357 l 535 99 l 628 355 q 632 368 633 374 q 634 380 629 385 q 623 391 615 393 q 607 396 587 401 l 583 402 q 575 404 575 409 l 575 433 l 579 436 q 647 434 691 434 l 759 436 l 761 434 l 761 411 q 761 404 750 402 q 720 398 705 384 q 689 370 678 342 l 553 33 q 536 -12 507 -12 q 496 -12 487 -8 q 478 -4 471 3 q 465 11 462 17 q 459 23 455 32 l 382 219 l 308 35 q 302 21 297 12 q 292 3 283 -5 q 274 -12 262 -12 q 241 -12 230 -1 q 218 9 209 32 l 91 334 q 78 368 64 383 q 50 398 19 402 q 8 403 8 409 l 8 434 l 11 436 q 76 434 117 434 l 224 436 l 228 434 l 228 410 q 228 404 217 402 q 195 399 191 388 q 187 377 195 357 z"},"-":{"x_min":0,"x_max":357,"ha":357,"o":"m 286 233 l 62 233 q 45 233 35 239 q 25 245 25 254 q 25 267 40 281 q 55 294 71 294 l 297 294 q 333 294 333 273 q 333 262 318 248 q 302 233 286 233 z"},"E":{"x_min":0,"x_max":562,"ha":562,"o":"m 27 0 l 24 2 l 24 24 q 24 28 27 31 q 29 33 32 33 l 46 33 q 76 33 89 43 q 101 53 101 77 l 101 569 q 101 593 89 603 q 76 613 46 613 l 32 613 q 29 613 27 615 q 24 618 24 621 l 24 644 l 27 646 l 493 646 q 499 564 514 484 l 474 475 q 469 494 464 508 q 459 522 450 541 q 441 559 430 571 q 420 583 404 592 q 387 600 368 600 l 238 600 q 224 600 224 571 l 224 365 l 337 365 q 346 365 352 370 q 358 375 362 386 q 366 398 367 407 q 369 417 372 436 q 372 439 377 443 q 381 447 388 447 l 409 447 l 415 437 q 408 381 408 344 q 408 311 415 251 l 409 242 l 388 242 q 381 242 377 245 q 372 249 372 252 q 369 271 367 281 q 366 291 362 302 q 358 314 352 319 q 346 323 337 323 l 224 323 l 224 75 q 224 46 238 46 l 391 46 q 430 46 458 83 q 485 120 499 179 l 542 169 q 524 72 515 0 z"},"s":{"x_min":0,"x_max":401,"ha":401,"o":"m 37 146 l 77 148 q 91 81 116 55 q 140 29 195 29 q 218 29 236 46 q 254 62 254 94 q 254 125 241 142 q 228 158 188 172 q 171 178 154 187 q 137 195 118 209 q 99 223 84 239 q 69 255 60 276 q 50 298 50 321 q 50 373 94 408 q 139 444 206 444 q 246 444 275 437 q 304 431 334 416 q 342 357 345 314 l 306 309 q 292 359 268 381 q 244 402 209 402 q 187 402 170 387 q 153 373 153 345 q 153 318 166 301 q 178 283 208 272 q 243 259 269 245 q 295 231 318 213 q 341 195 353 171 q 365 147 365 119 q 365 85 349 59 q 333 33 307 19 q 281 4 252 -3 q 223 -10 192 -10 q 169 -10 123 -4 q 76 2 49 2 q 49 57 37 146 z"},">":{"x_min":0,"x_max":512,"ha":512,"o":"m 359 238 l 42 354 l 42 416 l 471 259 l 471 215 l 42 60 l 42 122 z"},"l":{"x_min":0,"x_max":289,"ha":289,"o":"m 95 563 q 95 608 88 622 q 82 636 65 636 l 33 638 q 28 638 27 643 l 24 672 q 59 674 117 683 q 175 691 192 698 q 208 698 208 688 q 205 648 205 583 l 205 77 q 205 57 217 48 q 228 39 254 34 l 265 32 q 273 31 273 23 l 273 0 l 271 -2 q 187 0 148 0 l 29 -2 l 27 0 l 27 23 q 27 31 35 32 l 47 34 q 72 39 84 48 q 95 57 95 77 z"},"8":{"x_min":0,"x_max":490,"ha":490,"o":"m 247 575 q 209 575 193 552 q 176 529 176 491 q 176 466 191 439 q 206 412 235 393 l 264 374 q 317 414 317 480 q 317 575 247 575 z m 419 489 q 419 477 415 465 q 412 454 407 445 q 402 436 392 425 q 382 414 376 407 q 369 400 356 390 q 343 380 337 376 l 317 362 l 300 350 l 359 310 q 397 284 420 244 q 444 204 444 161 q 444 132 430 102 q 416 72 390 46 q 364 21 324 5 q 284 -11 238 -11 q 155 -11 100 31 q 46 72 46 146 q 46 160 49 173 q 52 186 56 196 q 61 207 70 218 q 79 230 85 238 q 92 245 106 257 l 129 275 l 155 295 l 182 316 l 164 326 q 119 355 94 393 q 69 431 69 472 q 69 533 116 571 q 163 610 252 610 q 332 610 375 577 q 419 544 419 489 z m 240 28 q 338 28 338 141 q 338 179 321 208 q 304 237 261 264 l 216 292 q 148 241 148 146 q 148 85 175 57 q 202 28 240 28 z"},"\\":{"x_min":0,"x_max":307,"ha":307,"o":"m 76 698 l 306 -48 l 241 -48 l 11 698 z"},"e":{"x_min":0,"x_max":461,"ha":461,"o":"m 154 285 l 314 285 q 316 287 316 296 q 316 350 294 376 q 273 402 248 402 q 240 402 231 400 q 223 397 210 390 q 197 382 187 370 q 176 358 167 336 q 158 314 154 285 z m 397 109 l 422 88 q 374 -10 246 -10 q 191 -10 149 7 q 107 24 83 53 q 58 83 46 119 q 34 156 34 198 q 34 253 53 301 q 72 348 102 379 q 133 409 171 427 q 209 444 249 444 q 292 444 324 433 q 357 423 377 406 q 396 389 409 365 q 422 341 427 317 q 431 293 431 266 q 431 245 392 245 l 149 245 l 149 219 q 149 146 188 96 q 227 46 285 46 q 345 46 397 109 z"},"b":{"x_min":0,"x_max":505,"ha":505,"o":"m 184 56 q 207 31 234 31 q 292 31 322 83 q 353 134 353 220 q 353 293 326 343 q 298 393 261 393 q 244 393 227 386 q 210 379 184 362 z m 74 563 q 74 608 67 622 q 61 636 44 636 l 12 638 q 7 638 6 643 l 3 672 q 38 674 96 683 q 154 691 171 698 q 187 698 187 688 q 184 648 184 583 l 184 402 q 242 444 286 444 q 362 444 415 388 q 468 333 468 243 q 468 197 455 156 q 441 115 419 85 q 396 55 367 33 q 338 12 305 1 q 272 -10 239 -10 q 177 -10 134 40 l 104 -13 l 70 -7 q 74 29 74 74 z"},"%":{"x_min":0,"x_max":637,"ha":637,"o":"m 477 14 q 501 14 522 39 q 542 63 552 96 q 562 128 562 157 q 562 214 523 214 q 502 214 483 192 q 464 169 454 138 q 443 106 443 77 q 443 48 453 31 q 462 14 477 14 z m 375 91 q 375 132 390 167 q 406 203 438 227 q 470 250 512 250 q 604 250 604 159 q 604 83 567 32 q 530 -19 471 -19 q 426 -19 400 11 q 375 41 375 91 z m 364 519 q 468 519 514 569 l 561 548 l 150 -16 l 96 -4 l 462 497 q 406 474 354 474 q 337 474 316 480 q 294 486 280 495 q 283 481 283 474 q 283 431 267 391 q 251 351 218 324 q 186 297 144 297 q 99 297 76 325 q 53 354 53 406 q 53 471 92 518 q 130 565 190 565 q 211 565 230 559 q 250 553 257 544 q 311 519 364 519 z m 122 392 q 122 364 131 347 q 141 330 155 330 q 177 330 197 354 q 217 377 229 411 q 240 444 240 473 q 240 506 229 517 q 218 529 201 529 q 178 529 159 506 q 141 484 131 453 q 122 422 122 392 z"},"m":{"x_min":0,"x_max":801,"ha":801,"o":"m 205 381 l 207 381 q 279 444 347 444 q 386 444 412 426 q 438 408 450 378 q 526 444 604 444 q 635 444 656 435 q 678 426 690 413 q 702 399 709 377 q 715 354 717 333 q 719 312 719 281 l 719 76 q 719 57 730 49 q 741 41 768 34 l 776 32 q 784 30 784 23 l 784 0 l 782 -2 q 701 0 662 0 l 555 -2 l 553 0 l 553 23 q 553 31 561 32 q 586 34 598 45 q 609 55 609 76 l 609 303 q 609 389 569 389 q 518 389 460 340 q 462 313 462 282 l 462 76 q 462 63 466 55 q 470 46 478 42 q 486 38 493 36 q 500 34 511 32 q 519 32 519 23 l 519 0 l 517 -2 q 445 0 406 0 l 298 -2 l 296 0 l 296 23 q 296 31 305 32 q 330 34 341 45 q 352 55 352 76 l 352 301 q 352 389 311 389 q 265 389 207 341 l 207 75 q 207 62 211 54 q 215 46 223 42 q 230 37 237 35 q 244 34 255 32 q 264 30 264 23 l 264 0 l 262 -2 q 190 0 150 0 l 34 -2 l 32 0 l 32 23 q 32 31 40 32 l 49 34 q 76 41 87 48 q 97 56 97 75 l 97 321 q 97 355 92 367 q 87 378 75 379 l 34 383 l 32 417 q 151 432 200 447 q 207 447 207 444 z"},"#":{"x_min":0,"x_max":463,"ha":463,"o":"m 256 237 l 272 337 l 202 337 l 185 237 z m 340 337 l 324 237 l 421 237 l 413 181 l 316 181 l 289 13 l 221 13 l 248 181 l 177 181 q 172 156 163 99 q 154 42 149 13 l 79 13 l 105 181 l 17 181 l 25 237 l 114 237 q 127 316 130 337 l 41 337 l 50 394 l 139 394 l 166 561 l 237 561 l 209 394 l 281 394 l 307 561 l 375 561 l 349 394 l 445 394 l 437 337 z"},",":{"x_min":0,"x_max":244,"ha":244,"o":"m 124 102 q 153 102 170 79 q 187 55 187 -6 q 187 -47 151 -87 q 115 -128 61 -137 q 45 -127 54 -106 q 89 -97 114 -71 q 138 -44 138 -27 q 138 -3 104 1 q 83 5 72 16 q 61 27 61 50 q 61 72 79 87 q 96 102 124 102 z"},"n":{"x_min":0,"x_max":563,"ha":563,"o":"m 208 381 q 290 444 359 444 q 390 444 413 436 q 435 427 448 414 q 461 400 469 379 q 476 357 479 335 q 481 313 481 283 l 481 76 q 481 57 492 49 q 503 41 530 34 l 538 32 q 546 30 546 23 l 546 0 l 544 -2 q 464 0 425 0 l 313 -2 l 311 0 l 311 23 q 311 30 319 32 l 323 33 q 349 40 360 48 q 371 57 371 76 l 371 290 q 371 345 363 366 q 355 388 329 388 q 284 388 208 341 l 208 76 q 208 57 219 48 q 231 39 256 33 l 260 32 q 268 30 268 23 l 268 0 l 266 -2 q 190 0 151 0 l 35 -2 l 33 0 l 33 23 q 33 31 41 32 l 50 34 q 77 40 87 48 q 98 57 98 76 l 98 321 q 98 355 93 367 q 88 378 76 379 l 35 383 l 33 417 q 152 432 201 447 q 208 447 208 444 l 206 381 z"},"h":{"x_min":0,"x_max":550,"ha":550,"o":"m 468 77 q 468 57 479 48 q 491 39 517 34 l 528 32 q 536 31 536 23 l 536 0 l 534 -2 q 450 0 411 0 l 297 -2 l 295 0 l 295 23 q 295 31 303 32 l 310 34 q 328 40 337 43 q 346 47 352 55 q 358 64 358 77 l 358 295 q 358 353 348 372 q 338 390 308 390 q 292 390 260 377 q 227 364 195 341 l 195 77 q 195 67 198 60 q 201 53 208 49 q 215 44 222 41 q 229 39 244 34 l 251 32 q 259 31 259 23 l 259 0 l 257 -2 q 177 0 138 0 l 19 -2 l 17 0 l 17 23 q 17 31 25 32 l 37 34 q 62 39 73 48 q 85 57 85 77 l 85 563 q 85 609 78 623 q 72 636 55 636 l 23 638 q 18 638 17 643 l 14 672 q 49 674 107 683 q 165 691 182 698 q 198 698 198 688 q 195 648 195 583 l 195 381 q 235 411 278 428 q 321 445 350 445 q 413 445 440 405 q 468 365 468 284 z"},"z":{"x_min":0,"x_max":432,"ha":432,"o":"m 98 446 q 102 434 115 434 l 319 434 q 330 434 342 435 q 354 436 362 436 q 370 437 370 437 q 385 437 396 433 q 406 428 406 421 q 406 415 386 385 l 163 42 l 279 42 q 341 42 369 148 l 411 139 q 391 68 385 0 l 87 0 q 32 0 32 16 q 32 20 43 38 l 273 392 l 157 392 q 133 392 116 370 q 98 349 86 296 l 43 302 q 62 379 65 446 z"},"B":{"x_min":0,"x_max":620,"ha":620,"o":"m 221 562 l 221 376 l 277 376 q 333 376 368 404 q 403 432 403 489 q 403 517 396 539 q 388 560 377 572 q 366 584 350 592 q 334 600 321 603 q 307 605 291 605 q 267 605 253 603 q 238 600 232 594 q 225 588 223 581 q 221 574 221 562 z m 221 334 l 221 84 q 221 60 233 50 q 245 40 287 40 q 325 40 355 50 q 384 60 402 74 q 419 89 431 110 q 442 130 446 149 q 450 167 450 187 q 450 253 409 294 q 367 334 292 334 z m 22 21 q 22 33 40 33 l 69 33 q 86 33 93 42 q 99 50 99 74 l 99 572 q 99 595 93 604 q 86 613 69 613 l 36 613 q 22 613 22 623 l 22 645 l 24 647 q 125 645 155 645 q 167 645 212 646 q 257 647 284 647 q 342 647 386 637 q 430 627 456 612 q 481 597 497 576 q 513 554 518 534 q 523 514 523 491 q 523 453 495 416 q 468 379 427 361 l 427 359 q 577 319 577 176 q 577 148 569 124 q 561 100 541 76 q 521 53 490 37 q 460 20 413 10 q 366 0 306 0 l 23 0 l 22 1 z"},"K":{"x_min":0,"x_max":660,"ha":660,"o":"m 221 76 q 221 54 234 43 q 246 32 276 32 l 290 32 q 298 32 298 23 l 298 0 l 296 -2 q 196 0 160 0 l 24 -2 l 22 0 l 22 23 q 22 32 30 32 l 44 32 q 74 32 87 42 q 99 52 99 76 l 99 569 q 99 593 87 603 q 74 613 44 613 l 30 613 q 27 613 24 615 q 22 618 22 621 l 22 645 l 24 647 q 121 645 160 645 l 295 647 l 297 645 l 297 621 q 297 613 290 613 l 275 613 q 246 613 233 602 q 221 591 221 569 l 221 368 l 429 563 q 436 569 440 576 q 446 583 449 592 q 453 600 448 605 q 443 611 430 611 q 390 611 390 623 l 390 644 l 394 647 q 489 645 528 645 l 645 647 l 650 644 l 650 623 q 650 612 620 611 q 567 603 506 544 l 351 404 q 319 374 314 360 q 309 347 324 331 l 563 77 q 584 55 598 45 q 612 34 624 34 l 642 34 q 649 34 653 33 q 657 31 657 29 q 658 26 658 22 l 658 0 l 655 -2 q 563 0 525 0 l 446 -2 l 442 2 l 442 28 q 442 40 441 45 q 441 50 438 57 q 434 64 427 72 l 221 294 z"},"R":{"x_min":0,"x_max":609,"ha":609,"o":"m 412 468 q 412 539 381 576 q 350 613 302 613 q 259 613 221 605 l 221 322 l 270 322 q 343 322 377 357 q 412 393 412 468 z m 532 482 q 532 433 518 397 q 503 360 479 337 q 456 314 418 294 l 521 98 q 554 33 614 40 l 618 5 q 583 -6 536 -6 q 494 -6 460 18 q 427 42 406 79 l 316 247 q 306 265 285 270 q 264 276 221 276 l 221 77 q 221 54 234 43 q 246 33 276 33 l 290 33 q 298 33 298 24 l 298 1 l 296 -1 q 222 1 183 1 l 24 -1 l 22 1 l 22 24 q 22 33 30 33 l 44 33 q 74 33 86 44 q 99 55 99 77 l 99 559 q 99 582 93 593 q 87 604 69 604 l 62 604 l 32 601 q 24 601 24 608 l 24 642 q 41 646 127 650 q 213 654 297 654 q 344 654 385 644 q 426 634 459 614 q 493 594 513 560 q 532 526 532 482 z"},"T":{"x_min":0,"x_max":597,"ha":597,"o":"m 87 645 l 510 645 q 532 645 532 669 l 568 673 q 574 593 590 519 l 550 514 q 544 535 540 548 q 536 562 530 572 q 524 582 519 587 q 514 592 505 595 q 495 598 486 598 q 478 599 462 599 l 408 599 q 381 599 370 590 q 360 582 360 557 l 360 76 q 360 53 373 42 q 385 32 415 32 l 441 32 q 444 32 447 30 q 449 27 449 23 l 449 0 l 447 -2 q 328 0 289 0 l 151 -2 l 149 0 l 149 23 q 149 32 157 32 l 183 32 q 213 32 225 43 q 238 54 238 76 l 238 560 q 238 583 227 591 q 217 599 189 599 l 136 599 q 121 599 112 598 q 103 598 93 595 q 83 592 78 587 q 73 582 67 572 q 61 562 57 548 q 52 535 47 514 l 8 519 q 23 593 30 673 l 66 669 q 66 645 87 645 z"},"P":{"x_min":0,"x_max":550,"ha":550,"o":"m 221 558 l 221 322 q 242 319 271 319 q 335 319 370 355 q 406 391 406 467 q 406 613 281 613 q 244 613 232 600 q 221 587 221 558 z m 99 89 l 99 560 q 99 609 65 611 l 33 613 q 22 613 22 621 l 22 645 l 24 647 q 51 647 148 650 q 246 654 289 654 q 337 654 377 646 q 416 638 442 624 q 468 610 486 593 q 505 576 515 556 q 524 536 529 519 q 533 501 533 484 q 533 454 526 426 q 518 397 499 370 q 480 343 452 323 q 423 303 378 291 q 333 279 276 279 q 246 279 221 282 l 221 89 q 221 62 235 50 q 250 38 281 34 l 300 32 q 308 32 308 23 l 308 0 l 306 -2 q 232 0 160 0 q 98 0 24 -2 l 22 0 l 22 23 q 22 31 30 32 l 44 34 q 75 39 87 50 q 99 61 99 89 z"},"|":{"x_min":0,"x_max":220,"ha":220,"o":"m 140 -233 l 80 -233 l 80 698 l 140 698 z"},"t":{"x_min":0,"x_max":331,"ha":331,"o":"m 199 387 l 199 135 q 199 104 203 87 q 208 70 212 66 q 217 62 225 62 q 244 62 258 66 q 273 71 293 87 l 316 64 q 260 -10 175 -10 q 135 -10 112 15 q 89 40 89 92 l 89 387 l 38 387 q 26 387 23 389 q 20 390 20 395 l 20 426 q 20 434 58 434 q 93 434 106 466 q 118 498 118 564 l 199 595 l 199 434 l 294 434 q 316 434 316 424 l 316 404 q 316 387 279 387 z"},"M":{"x_min":0,"x_max":853,"ha":853,"o":"m 711 569 l 754 76 q 756 54 768 43 q 780 32 809 32 l 823 32 q 831 32 831 23 l 831 0 l 829 -2 q 730 0 695 0 l 573 -2 l 571 0 l 571 23 q 571 27 573 30 q 576 32 579 32 l 593 32 q 623 32 634 42 q 646 53 643 76 l 612 446 l 433 7 q 424 -12 404 -12 q 396 -12 386 -8 q 377 -3 374 7 l 189 449 l 168 76 q 167 52 178 42 q 189 32 220 32 l 234 32 q 242 32 242 23 l 242 0 l 240 -2 q 167 0 132 0 l 26 -2 l 24 0 l 24 23 q 24 27 27 30 q 29 32 32 32 l 42 32 q 73 32 88 42 q 104 53 105 76 l 133 569 q 134 594 125 604 q 117 613 88 613 l 74 613 q 70 613 68 615 q 65 618 65 621 l 65 645 l 67 646 l 236 646 l 441 158 l 631 646 l 786 646 l 788 645 l 788 621 q 788 613 780 613 l 766 613 q 736 613 722 602 q 709 590 711 569 z"},"g":{"x_min":0,"x_max":508,"ha":508,"o":"m 312 284 q 312 343 290 376 q 269 409 233 409 q 202 409 183 382 q 164 354 164 301 q 164 280 168 259 q 173 238 182 218 q 190 197 207 185 q 224 172 246 172 q 257 172 268 176 q 278 181 289 192 q 299 203 306 226 q 312 250 312 284 z m 183 -15 q 160 -15 150 -11 q 136 -26 132 -45 q 128 -64 128 -96 q 128 -121 140 -141 q 152 -162 169 -173 q 187 -184 203 -190 q 219 -196 231 -196 q 271 -196 309 -183 q 347 -171 374 -144 q 402 -117 402 -81 q 402 -12 256 -12 q 255 -12 225 -14 q 210 -15 183 -15 z m 447 383 q 419 383 410 412 q 404 424 395 424 q 381 424 366 406 q 393 384 406 356 q 420 328 420 287 q 420 240 395 204 q 369 169 329 152 q 289 135 241 135 q 190 135 158 150 q 151 133 151 101 q 151 74 165 62 q 179 49 196 49 q 196 49 232 52 q 268 56 290 56 q 336 56 374 48 q 411 40 432 28 q 454 16 469 0 q 483 -15 488 -29 q 493 -42 493 -55 q 493 -108 449 -151 q 406 -193 340 -216 q 274 -238 203 -238 q 171 -238 142 -231 q 113 -224 88 -210 q 63 -197 49 -172 q 34 -148 34 -116 q 34 -87 55 -56 q 77 -25 115 1 q 67 31 67 74 q 67 118 119 167 q 92 186 75 220 q 58 255 58 292 q 58 337 84 372 q 110 407 152 426 q 194 444 242 444 q 301 444 336 425 q 356 443 386 455 q 416 467 437 467 q 463 467 477 453 q 491 439 491 423 q 491 405 479 394 q 467 383 447 383 z"},"y":{"x_min":0,"x_max":533,"ha":533,"o":"m 432 341 l 266 -71 q 251 -106 238 -132 q 224 -158 205 -182 q 186 -207 162 -220 q 138 -232 109 -232 q 100 -232 88 -229 q 76 -227 63 -221 q 50 -215 42 -204 q 33 -192 33 -178 q 33 -154 51 -140 q 68 -126 92 -126 q 103 -126 116 -134 q 128 -142 134 -150 q 145 -167 153 -167 q 157 -167 166 -157 q 174 -147 188 -122 q 202 -97 215 -61 l 233 -12 l 92 336 q 76 375 62 389 q 49 402 20 402 q 10 402 10 409 l 10 434 l 13 436 q 78 434 119 434 l 240 436 l 244 434 l 244 410 q 244 406 241 404 q 238 402 236 402 q 207 402 198 391 q 190 380 199 357 l 292 105 q 350 245 384 355 q 399 402 344 402 q 341 402 338 404 q 336 407 336 409 l 336 433 l 340 436 q 409 434 452 434 l 516 436 l 518 434 l 518 411 q 518 408 515 405 q 511 402 507 402 q 484 402 464 386 q 444 371 432 341 z"},"@":{"x_min":0,"x_max":988,"ha":988,"o":"m 606 320 q 606 346 591 364 q 576 382 557 382 q 512 382 476 343 q 414 276 414 164 q 414 72 470 72 q 496 72 527 103 q 559 134 577 193 q 606 291 606 320 z m 640 75 q 640 66 644 63 q 648 61 658 61 q 670 61 688 69 q 706 77 726 94 q 747 112 764 136 q 782 160 793 196 q 805 232 805 273 q 805 336 785 390 q 765 443 733 478 q 701 513 661 538 q 620 562 580 573 q 541 584 504 584 q 457 584 411 569 q 366 555 325 525 q 284 495 253 453 q 222 412 204 354 q 186 295 186 228 q 186 182 197 135 q 208 88 234 41 q 260 -5 297 -41 q 335 -77 393 -99 q 451 -121 521 -121 q 639 -121 731 -46 l 752 -75 q 715 -103 685 -120 q 655 -136 608 -148 q 561 -160 502 -160 q 384 -160 291 -113 q 198 -65 145 22 q 92 109 92 221 q 92 299 123 371 q 153 443 207 499 q 261 554 341 588 q 421 621 513 621 q 596 621 667 595 q 738 570 787 525 q 835 480 863 419 q 890 357 890 287 q 890 218 855 156 q 821 94 762 57 q 704 19 638 19 q 591 19 571 37 q 550 56 550 76 q 500 30 444 30 q 411 30 386 40 q 362 49 349 63 q 336 77 328 96 q 321 115 319 129 q 317 143 317 158 q 317 211 338 259 q 359 308 392 341 q 426 375 469 395 q 511 415 554 415 q 617 415 648 377 l 685 410 l 712 399 l 653 141 q 640 85 640 75 z"},".":{"x_min":0,"x_max":244,"ha":244,"o":"m 66 45 q 66 68 83 84 q 99 101 122 101 q 145 101 162 84 q 178 68 178 45 q 178 22 162 6 q 145 -10 122 -10 q 99 -10 83 6 q 66 22 66 45 z"},"p":{"x_min":0,"x_max":523,"ha":523,"o":"m 195 341 l 195 65 q 225 32 256 32 q 287 32 311 48 q 334 63 347 90 q 360 116 367 146 q 373 177 373 210 q 373 298 351 345 q 328 392 284 392 q 266 392 241 378 q 216 364 195 341 z m 195 381 q 220 410 252 427 q 284 444 316 444 q 368 444 408 414 q 448 384 468 337 q 488 291 488 237 q 488 124 411 47 q 354 -10 262 -10 q 227 -10 195 7 l 195 -154 q 195 -173 206 -183 q 217 -192 243 -198 l 251 -200 q 259 -203 259 -208 l 259 -232 l 258 -234 q 177 -232 138 -232 l 22 -234 l 20 -232 l 20 -208 q 20 -202 28 -200 l 37 -198 q 63 -192 74 -183 q 85 -174 85 -154 l 85 321 q 85 355 80 367 q 75 378 63 379 l 22 383 l 20 417 q 139 432 188 447 q 195 447 195 444 l 193 381 z"},"X":{"x_min":0,"x_max":708,"ha":708,"o":"m 24 620 l 24 645 l 29 646 q 43 646 85 646 q 126 645 130 645 q 131 645 165 645 q 199 646 238 646 q 277 646 291 646 q 294 645 295 645 l 295 620 q 295 613 290 613 q 252 613 245 604 q 237 595 253 572 l 360 414 q 370 401 374 401 q 378 400 388 412 q 477 521 506 572 q 528 613 469 613 q 467 613 464 615 q 462 617 462 620 l 462 645 l 464 646 q 476 646 528 646 q 580 645 584 645 q 585 645 628 646 q 671 646 682 646 l 684 645 l 684 620 q 684 613 675 613 q 640 613 615 597 q 591 582 565 552 l 421 383 q 411 371 410 364 q 409 357 414 348 q 419 338 438 312 l 591 102 q 642 32 697 32 q 704 32 704 24 l 704 0 l 703 -2 q 647 0 597 0 l 431 -2 l 428 0 l 428 25 q 428 28 430 30 q 432 32 434 32 q 478 32 482 40 q 487 47 467 73 l 345 246 q 330 269 323 271 q 317 272 307 258 q 241 172 183 77 q 176 65 175 56 q 174 48 178 43 q 181 39 189 36 q 196 33 203 33 q 209 32 218 32 q 224 32 224 24 l 224 0 l 221 -2 q 104 0 90 0 l 6 -2 l 5 0 l 5 25 q 5 32 16 32 q 37 32 54 37 q 70 42 85 54 q 100 66 107 75 q 115 84 131 104 l 277 291 q 290 306 289 314 q 288 323 273 344 l 129 549 q 103 585 78 599 q 54 613 35 613 q 24 613 24 620 z"},"*":{"x_min":0,"x_max":433,"ha":433,"o":"m 197 566 q 193 566 184 568 q 174 570 170 571 q 166 571 156 571 q 133 567 115 567 q 97 566 86 576 q 75 586 75 608 q 75 621 83 630 q 91 640 108 640 q 123 640 136 632 q 150 623 168 609 q 186 595 203 588 q 201 609 187 638 q 173 667 173 679 q 173 694 185 706 q 197 718 211 718 q 226 718 239 709 q 251 700 251 683 q 251 669 239 636 q 227 603 226 588 q 241 594 254 604 q 268 614 275 622 q 283 630 293 636 q 304 642 315 642 q 335 642 344 630 q 354 619 354 608 q 354 587 334 577 q 315 568 285 568 q 249 568 231 565 q 243 552 267 540 q 290 527 303 515 q 316 502 316 480 q 316 467 306 459 q 296 451 284 451 q 262 451 251 467 q 239 482 230 510 q 221 539 213 552 q 207 541 202 524 q 197 508 194 497 q 191 485 186 474 q 181 463 170 457 q 160 451 143 451 q 130 451 122 459 q 114 467 114 479 q 114 494 119 505 q 125 516 134 522 q 143 529 153 534 q 163 540 176 548 q 188 556 197 566 z"},"Y":{"x_min":0,"x_max":617,"ha":617,"o":"m 254 72 l 254 281 l 97 553 q 73 593 59 603 q 45 613 23 613 l 11 613 q 0 613 0 620 l 0 645 l 2 647 q 116 645 129 645 l 243 647 l 245 645 l 245 621 q 245 613 238 613 q 217 613 207 612 q 197 611 191 607 q 186 603 187 596 q 189 589 197 576 l 336 334 l 464 576 q 472 591 460 602 q 448 613 421 613 q 415 613 415 620 l 415 645 l 417 647 q 496 645 508 645 l 615 647 l 617 645 l 617 621 q 617 613 607 613 l 586 613 q 562 613 550 605 q 538 598 525 574 l 376 293 l 376 72 q 376 49 388 41 q 401 33 431 33 l 458 33 q 466 33 466 24 l 466 1 l 464 -1 q 355 1 316 1 l 167 -1 l 166 1 l 166 24 q 166 33 173 33 l 200 33 q 230 33 242 42 q 254 51 254 72 z"},"c":{"x_min":0,"x_max":435,"ha":435,"o":"m 406 87 q 383 41 343 16 q 302 -10 249 -10 q 145 -10 91 46 q 37 102 37 201 q 37 307 100 375 q 163 444 253 444 q 330 444 371 414 q 411 384 411 340 q 411 316 398 300 q 384 284 361 284 q 337 284 322 297 q 307 311 304 331 q 302 360 288 381 q 275 402 249 402 q 208 402 179 354 q 151 307 151 226 q 151 147 188 94 q 224 41 275 41 q 303 41 329 56 q 354 70 386 106 z"},"!":{"x_min":0,"x_max":244,"ha":244,"o":"m 122 658 q 152 658 173 639 q 194 619 194 583 q 194 555 180 477 q 152 304 150 230 q 149 188 122 188 q 104 188 98 201 q 93 213 92 242 q 90 282 82 354 q 73 428 64 480 q 63 484 60 500 l 56 521 q 55 527 53 539 q 51 551 51 562 q 50 572 50 583 q 50 621 72 640 q 94 658 122 658 z m 65 45 q 65 68 82 84 q 98 101 121 101 q 144 101 160 84 q 177 68 177 45 q 177 22 160 6 q 144 -10 121 -10 q 98 -10 82 6 q 65 22 65 45 z"},"/":{"x_min":0,"x_max":316,"ha":316,"o":"m 302 682 l 65 -21 l 2 -21 l 239 682 z"},"[":{"x_min":0,"x_max":375,"ha":375,"o":"m 343 689 l 343 638 l 198 638 l 198 -147 l 343 -147 l 343 -198 l 88 -198 l 88 689 z"},"6":{"x_min":0,"x_max":490,"ha":490,"o":"m 154 280 q 153 269 153 240 q 153 191 160 152 q 167 114 177 91 q 188 68 202 53 q 216 39 230 33 q 243 28 257 28 q 288 28 309 64 q 330 100 330 174 q 330 189 328 207 q 325 225 318 245 q 312 266 301 281 q 291 297 273 308 q 255 319 233 319 q 192 319 154 280 z m 419 579 q 395 578 379 575 q 364 573 339 566 q 314 559 290 543 q 266 527 241 502 q 184 443 163 340 q 208 361 252 361 q 287 361 316 353 q 345 346 364 334 q 383 322 398 306 q 413 290 421 273 q 429 257 434 239 q 439 221 441 208 q 443 194 443 182 q 443 158 438 134 q 433 110 419 83 q 405 57 384 37 q 363 17 328 3 q 292 -10 248 -10 q 220 -10 194 -4 q 168 2 139 19 q 110 36 89 63 q 68 90 54 136 q 40 183 40 243 q 40 396 146 508 q 195 559 258 583 q 321 606 415 612 z"},"r":{"x_min":0,"x_max":401,"ha":401,"o":"m 207 381 q 268 444 335 444 q 360 444 377 427 q 393 409 393 388 q 393 364 379 347 q 364 331 343 331 q 330 331 317 337 q 305 344 298 351 q 291 358 283 365 q 275 371 270 371 q 252 371 233 358 q 207 339 207 288 l 207 77 q 207 58 218 49 q 229 41 255 34 l 263 32 q 271 30 271 23 l 271 0 l 269 -2 q 189 0 150 0 l 34 -2 l 32 0 l 32 23 q 32 30 39 32 l 49 34 q 75 40 86 49 q 97 58 97 77 l 97 321 q 97 355 92 367 q 87 378 75 379 l 34 383 l 32 417 q 151 432 200 447 q 207 447 207 444 l 205 381 z"},"2":{"x_min":0,"x_max":490,"ha":490,"o":"m 51 465 q 51 488 63 513 q 76 539 98 560 q 120 582 156 596 q 192 610 235 610 q 263 610 289 606 q 314 602 340 591 q 365 580 384 563 q 402 546 413 518 q 425 491 425 455 q 425 433 417 410 q 409 388 398 369 q 387 350 365 325 q 343 299 326 281 l 277 233 q 271 228 243 201 q 215 175 200 159 q 185 143 169 120 q 154 96 154 79 l 316 79 q 345 79 359 96 q 373 113 386 164 l 429 155 q 417 99 407 0 l 50 0 q 50 46 73 90 q 97 133 169 210 l 241 286 q 278 326 292 363 q 306 400 306 451 q 306 483 298 508 q 290 533 277 545 q 264 558 252 564 q 239 570 228 570 q 191 570 166 550 q 141 531 141 511 q 141 494 145 485 q 148 477 148 464 q 148 443 133 432 q 119 422 100 422 q 80 422 65 434 q 51 447 51 465 z"},"{":{"x_min":0,"x_max":306,"ha":306,"o":"m 205 564 l 205 385 q 205 322 192 294 q 179 266 140 248 q 156 241 167 233 q 178 225 185 213 q 192 202 196 192 q 200 183 202 166 q 204 148 205 135 q 205 122 205 98 l 205 -65 q 205 -128 219 -154 q 240 -191 269 -197 l 269 -215 q 163 -212 136 -177 q 105 -135 105 -50 l 105 123 q 105 174 91 205 q 77 236 39 245 l 39 250 q 59 256 73 268 q 86 280 93 298 q 100 315 103 332 q 105 349 105 370 l 105 557 q 105 633 138 674 q 167 709 269 712 l 269 693 q 237 686 218 650 q 205 627 205 564 z"},"9":{"x_min":0,"x_max":490,"ha":490,"o":"m 333 320 q 333 331 333 360 q 333 409 327 448 q 320 486 309 509 q 298 532 284 546 q 270 561 257 566 q 243 572 229 572 q 199 572 178 536 q 157 500 157 426 q 157 405 161 383 q 166 360 175 336 q 185 312 205 296 q 226 281 253 281 q 294 281 333 320 z m 67 21 q 92 22 107 25 q 123 27 147 34 q 172 42 197 57 q 221 73 246 98 q 303 157 324 260 q 279 239 234 239 q 200 239 171 246 q 142 254 122 266 q 103 277 88 294 q 74 311 65 327 q 57 343 52 361 q 47 379 45 393 q 43 406 43 418 q 43 442 49 466 q 54 490 67 517 q 81 543 102 563 q 123 583 158 597 q 194 610 238 610 q 266 610 292 604 q 318 598 347 581 q 376 564 397 537 q 418 510 432 464 q 446 417 446 357 q 446 204 340 92 q 292 41 229 17 q 166 -7 71 -12 z"}," ":{"x_min":0,"x_max":250,"ha":250,"o":""},"I":{"x_min":0,"x_max":319,"ha":319,"o":"m 221 76 q 221 54 234 43 q 246 32 276 32 l 290 32 q 298 32 298 23 l 298 0 l 296 -2 q 196 0 160 0 l 24 -2 l 22 0 l 22 23 q 22 32 30 32 l 44 32 q 74 32 87 42 q 99 52 99 76 l 99 569 q 99 593 87 603 q 74 613 44 613 l 30 613 q 27 613 24 615 q 22 618 22 621 l 22 645 l 24 647 q 121 645 160 645 l 296 647 l 298 645 l 298 621 q 298 613 290 613 l 276 613 q 246 613 234 602 q 221 591 221 569 z"},"H":{"x_min":0,"x_max":723,"ha":723,"o":"m 502 569 q 502 593 490 603 q 477 613 447 613 l 433 613 q 430 613 427 615 q 425 618 425 621 l 425 645 l 427 647 q 524 645 563 645 l 700 647 l 702 645 l 702 621 q 702 613 694 613 l 680 613 q 650 613 638 602 q 625 591 625 569 l 625 76 q 625 54 638 43 q 650 32 680 32 l 694 32 q 702 32 702 23 l 702 0 l 700 -2 q 599 0 563 0 l 427 -2 l 425 0 l 425 23 q 425 27 427 30 q 430 32 433 32 l 447 32 q 477 32 490 42 q 502 52 502 76 l 502 321 l 222 321 l 222 76 q 222 54 235 43 q 247 32 277 32 l 291 32 q 299 32 299 23 l 299 0 l 297 -2 q 196 0 160 0 l 24 -2 l 22 0 l 22 23 q 22 32 30 32 l 44 32 q 74 32 87 42 q 99 52 99 76 l 99 569 q 99 593 87 603 q 74 613 44 613 l 30 613 q 27 613 24 615 q 22 618 22 621 l 22 645 l 24 647 q 121 645 160 645 l 297 647 l 299 645 l 299 621 q 299 613 291 613 l 277 613 q 247 613 235 602 q 222 591 222 569 l 222 367 l 502 367 z"},"4":{"x_min":0,"x_max":490,"ha":490,"o":"m 271 493 q 202 399 90 219 l 271 219 z m 467 219 q 482 219 482 203 q 482 193 473 181 q 463 169 453 169 l 374 169 l 374 81 q 374 65 376 56 q 379 46 389 42 q 400 37 406 36 q 412 35 434 33 q 440 33 444 32 q 448 28 448 15 q 448 2 444 -2 q 379 0 308 0 q 254 0 190 -2 q 186 2 186 15 q 186 28 190 32 q 234 35 247 41 q 271 51 271 81 l 271 169 l 67 169 q 37 169 28 214 q 95 319 173 429 q 250 540 299 599 q 309 610 315 610 l 374 610 l 376 608 q 374 598 374 511 l 374 219 z"},"~":{"x_min":0,"x_max":473,"ha":473,"o":"m 26 210 q 37 262 76 301 q 116 341 167 341 q 212 341 252 309 q 267 296 285 286 q 303 277 312 277 q 341 277 362 293 q 384 309 401 349 l 437 337 q 426 298 411 272 q 396 246 378 233 q 360 221 344 216 q 328 211 309 211 q 260 211 222 244 q 206 257 189 266 q 172 274 161 274 q 139 274 109 253 q 79 231 62 198 z"},"D":{"x_min":0,"x_max":718,"ha":718,"o":"m 221 75 q 221 60 227 53 q 232 46 250 43 q 268 40 308 40 q 349 40 383 46 q 416 53 448 70 q 479 86 501 113 q 523 140 536 184 q 549 227 549 284 q 549 332 540 376 q 532 420 512 462 q 492 505 462 536 q 432 568 386 587 q 340 606 283 606 q 251 606 236 599 q 221 593 221 571 z m 24 0 l 22 2 l 22 24 q 22 33 30 33 l 44 33 q 74 33 87 43 q 99 53 99 77 l 99 569 q 99 593 87 603 q 74 613 44 613 l 30 613 q 27 613 24 615 q 22 618 22 621 l 22 644 l 24 646 l 320 646 q 419 646 503 601 q 586 555 634 478 q 681 400 681 309 q 681 238 659 183 q 638 127 604 94 q 569 60 523 38 q 476 17 431 8 q 386 0 338 0 z"},"^":{"x_min":0,"x_max":518,"ha":518,"o":"m 259 569 l 169 346 l 112 346 l 239 650 l 281 650 l 407 346 l 350 346 z"},"0":{"x_min":0,"x_max":490,"ha":490,"o":"m 247 566 q 235 566 225 560 q 214 554 201 536 q 188 518 179 488 q 170 458 164 406 q 158 353 158 284 q 158 248 162 209 q 166 169 175 128 q 184 86 202 60 q 220 33 244 33 q 250 33 257 36 q 264 40 274 48 q 284 56 294 75 q 303 95 310 122 q 333 207 333 323 q 333 416 316 473 q 300 531 277 551 q 260 566 247 566 z m 243 -10 q 184 -10 137 32 q 90 74 65 143 q 40 212 40 294 q 40 366 57 426 q 75 486 104 526 q 132 566 170 588 q 207 610 247 610 q 284 610 321 590 q 358 569 384 539 q 450 447 450 304 q 450 237 437 182 q 423 126 401 92 q 380 57 352 33 q 324 10 297 0 q 270 -10 243 -10 z"},"F":{"x_min":0,"x_max":513,"ha":513,"o":"m 223 76 q 223 54 236 43 q 248 32 278 32 l 292 32 q 300 32 300 23 l 300 0 l 298 -2 q 198 0 162 0 l 26 -2 l 24 0 l 24 23 q 24 27 27 30 q 29 32 32 32 l 46 32 q 76 32 89 42 q 101 52 101 76 l 101 569 q 101 593 89 603 q 76 613 46 613 l 32 613 q 29 613 27 615 q 24 618 24 621 l 24 644 l 27 646 l 492 646 q 498 564 513 484 l 473 475 q 468 494 463 508 q 458 522 449 541 q 440 559 429 571 q 419 583 403 592 q 386 600 367 600 l 237 600 q 223 600 223 571 l 223 365 l 336 365 q 345 365 351 370 q 357 375 361 386 q 365 398 366 407 q 368 417 371 436 q 371 439 376 443 q 380 447 387 447 l 408 447 l 414 437 q 407 381 407 344 q 407 311 414 251 l 408 242 l 387 242 q 380 242 376 245 q 371 249 371 252 q 368 271 366 281 q 365 291 361 302 q 357 314 351 319 q 345 323 336 323 l 223 323 z"},"`":{"x_min":0,"x_max":392,"ha":392,"o":"m 198 702 l 267 578 q 276 562 276 552 q 276 545 271 541 q 266 536 259 536 q 248 536 224 556 l 103 661 l 105 672 q 114 682 135 693 q 155 704 178 704 q 190 704 198 702 z"},"k":{"x_min":0,"x_max":523,"ha":523,"o":"m 83 77 l 83 563 q 83 609 76 623 q 70 636 53 636 l 21 638 q 16 638 15 643 l 12 672 q 47 674 105 683 q 163 691 180 698 q 196 698 196 688 q 193 648 193 583 l 193 249 q 222 253 249 277 q 271 297 313 349 q 324 363 324 375 q 324 387 317 393 q 310 399 302 400 l 281 402 q 268 403 268 412 l 268 434 l 273 436 q 340 434 375 434 l 490 436 l 493 434 l 493 412 q 493 406 491 404 q 489 402 483 402 l 453 400 q 439 399 416 384 q 393 370 374 351 l 299 269 q 293 262 302 249 l 418 78 q 430 60 446 48 q 462 36 474 35 l 503 32 q 511 31 511 26 l 511 0 l 508 -2 q 438 0 399 0 l 315 -2 l 313 0 l 313 26 q 313 44 297 78 q 280 113 229 190 q 222 201 214 205 q 206 208 193 209 l 193 77 q 193 67 196 60 q 199 53 206 49 q 213 44 220 41 q 228 39 242 34 l 249 32 q 257 31 257 23 l 257 0 l 255 -2 q 175 0 136 0 l 17 -2 l 15 0 l 15 23 q 15 31 23 32 l 35 34 q 60 39 72 48 q 83 57 83 77 z"},"u":{"x_min":0,"x_max":550,"ha":550,"o":"m 462 115 q 462 90 475 75 q 488 61 526 59 l 527 28 q 484 22 455 15 q 427 8 415 2 q 402 -3 386 -12 l 352 -12 l 355 35 q 284 -10 226 -10 q 184 -10 156 1 q 127 13 113 33 q 98 54 93 77 q 87 99 87 128 l 87 352 q 87 376 81 387 q 75 399 58 400 l 27 402 l 24 404 l 24 434 l 29 436 q 108 434 140 434 l 198 436 q 197 391 197 354 l 197 142 q 197 112 202 91 q 208 70 216 59 q 225 49 234 44 q 242 40 251 40 q 309 40 352 77 l 352 352 q 352 400 324 400 l 293 402 l 289 404 l 289 434 l 293 436 q 377 434 404 434 l 464 436 q 462 395 462 354 z"},"]":{"x_min":0,"x_max":375,"ha":375,"o":"m -9 -200 l -9 -149 l 136 -149 l 136 636 l -9 636 l -9 687 l 246 687 l 246 -200 z"},"U":{"x_min":0,"x_max":678,"ha":678,"o":"m 521 569 q 521 593 508 603 q 496 613 466 613 l 452 613 q 448 613 446 615 q 443 618 443 621 l 443 645 l 445 646 q 518 645 557 645 l 669 646 l 671 645 l 671 621 q 671 613 663 613 l 649 613 q 619 613 607 602 q 594 591 594 569 l 594 295 q 594 254 592 222 q 589 189 581 157 q 574 125 562 100 q 549 76 529 54 q 509 33 482 19 q 456 6 418 -2 q 381 -10 334 -10 q 303 -10 271 -3 q 238 4 204 22 q 170 41 144 68 q 118 95 101 138 q 84 182 84 237 l 84 569 q 84 593 72 603 q 59 613 30 613 l 16 613 q 12 613 10 615 q 7 618 7 621 l 7 645 l 9 646 q 106 645 146 645 l 281 646 l 283 645 l 283 621 q 283 613 275 613 l 261 613 q 232 613 219 602 q 207 591 207 569 l 207 270 q 207 236 208 218 q 209 199 213 170 q 216 141 227 119 q 237 97 253 80 q 304 31 355 31 q 386 31 410 39 q 435 47 452 61 q 469 74 482 94 q 495 114 502 135 q 509 156 514 182 q 518 208 520 230 q 521 252 521 278 z"},"o":{"x_min":0,"x_max":519,"ha":519,"o":"m 250 403 q 220 403 198 376 q 175 350 166 312 q 156 273 156 229 q 156 200 163 167 q 170 134 184 104 q 198 73 222 53 q 246 33 275 33 q 291 33 304 39 q 318 45 333 61 q 347 76 355 107 q 364 139 364 184 q 364 289 333 346 q 302 403 250 403 z m 34 207 q 34 312 94 378 q 153 444 260 444 q 307 444 346 430 q 384 417 410 394 q 435 372 452 342 q 470 312 477 280 q 485 249 485 216 q 485 185 476 154 q 468 123 449 93 q 431 63 405 40 q 379 18 342 4 q 304 -10 259 -10 q 206 -10 162 10 q 118 29 91 60 q 64 91 49 129 q 34 167 34 207 z"},"N":{"x_min":0,"x_max":710,"ha":710,"o":"m 546 569 q 546 593 534 603 q 521 613 492 613 l 478 613 q 469 613 469 621 l 469 645 l 471 646 q 539 645 578 645 l 685 646 l 687 645 l 687 621 q 687 613 679 613 l 665 613 q 635 613 623 602 q 610 591 610 569 l 610 25 q 610 -12 572 -12 q 545 -12 525 15 l 175 470 l 175 76 q 175 54 188 43 q 200 32 230 32 l 244 32 q 252 32 252 23 l 252 0 l 250 -2 q 177 0 142 0 l 29 -2 l 27 0 l 27 23 q 27 27 30 30 q 32 32 35 32 l 49 32 q 112 32 112 76 l 112 560 q 102 573 97 579 q 92 585 83 595 q 73 604 63 609 q 53 613 42 613 q 30 613 26 615 q 22 618 22 624 l 22 643 l 25 646 l 170 646 l 546 168 z"},"+":{"x_min":0,"x_max":537,"ha":537,"o":"m 306 269 l 477 269 l 477 195 l 306 195 l 306 32 l 232 32 l 232 195 l 61 195 l 61 269 l 232 269 l 232 433 l 306 433 z"},"G":{"x_min":0,"x_max":727,"ha":727,"o":"m 649 229 l 649 114 q 649 96 661 85 q 605 38 541 14 q 476 -10 386 -10 q 308 -10 241 16 q 173 41 127 84 q 81 127 55 185 q 29 243 29 308 q 29 388 59 455 q 89 522 139 566 q 189 610 252 634 q 315 658 383 658 q 429 658 467 651 q 504 645 524 636 q 544 627 565 621 q 586 614 602 614 q 605 551 624 445 l 585 437 q 576 468 565 492 q 555 517 538 541 q 521 565 500 581 q 479 597 449 607 q 419 617 382 617 q 337 617 296 596 q 255 574 225 537 q 195 499 177 444 q 159 390 159 327 q 159 270 175 218 q 191 166 221 124 q 250 83 298 59 q 345 34 404 34 q 438 34 473 44 q 508 54 532 74 l 532 229 q 532 251 512 261 q 492 272 460 272 l 446 272 q 438 272 438 281 l 438 304 l 440 306 q 537 304 576 304 l 706 306 l 708 304 l 708 281 q 708 272 700 272 l 694 272 q 666 272 657 262 q 649 252 649 229 z"},"q":{"x_min":0,"x_max":518,"ha":518,"o":"m 335 349 q 301 402 255 402 q 207 402 178 354 q 149 305 149 229 q 149 187 158 153 q 167 120 180 99 q 193 79 211 65 q 229 51 245 46 q 262 41 278 41 q 302 41 335 61 z m 335 -155 l 335 8 q 320 1 294 -4 q 269 -10 244 -10 q 200 -10 163 4 q 127 18 104 40 q 81 62 65 91 q 49 121 43 150 q 36 179 36 208 q 36 309 98 376 q 160 444 258 444 q 319 444 369 401 q 391 426 406 437 q 421 447 437 447 q 440 447 444 444 q 447 441 447 436 q 445 355 445 321 l 445 -155 q 445 -174 456 -183 q 468 -191 494 -198 l 502 -200 q 510 -202 510 -209 l 510 -232 l 508 -234 q 428 -232 389 -232 l 272 -234 l 270 -232 l 270 -209 q 270 -202 278 -200 l 288 -198 q 314 -193 324 -184 q 335 -175 335 -155 z"},"d":{"x_min":0,"x_max":527,"ha":527,"o":"m 334 343 q 295 402 255 402 q 238 402 221 394 q 205 386 188 367 q 172 348 162 311 q 152 273 152 222 q 152 132 181 86 q 210 40 256 40 q 288 40 334 84 z m 444 583 l 444 115 q 444 90 457 76 q 471 62 508 59 l 510 28 q 430 20 368 -12 l 334 -12 l 336 35 q 307 10 284 0 q 262 -10 231 -10 q 150 -10 94 52 q 37 113 37 205 q 37 316 105 384 q 138 414 176 429 q 214 444 269 444 q 282 444 303 436 q 324 429 334 419 l 334 563 q 334 609 327 623 q 321 636 304 636 l 272 638 q 267 638 266 643 l 263 672 q 298 674 356 683 q 414 691 431 698 q 447 698 447 688 q 444 648 444 583 z"},"1":{"x_min":0,"x_max":490,"ha":490,"o":"m 207 81 l 207 430 q 207 454 205 466 q 203 478 199 480 q 196 483 190 483 q 180 483 146 471 q 112 460 81 444 l 63 477 q 106 498 180 542 q 254 587 265 593 q 294 610 307 610 q 320 610 320 593 q 317 530 317 477 l 317 81 q 317 74 318 68 q 319 62 320 58 q 321 54 325 51 q 329 47 331 45 q 333 42 339 41 q 345 39 347 38 q 350 37 358 36 q 367 35 370 34 q 373 34 383 33 q 394 33 397 32 q 401 28 401 15 q 401 2 397 -2 q 333 0 263 0 q 170 0 106 -2 q 102 2 102 15 q 102 28 106 32 q 157 36 172 41 q 207 51 207 81 z"},"5":{"x_min":0,"x_max":490,"ha":490,"o":"m 316 186 q 316 257 287 301 q 259 344 219 344 q 188 344 158 337 q 129 330 83 310 l 118 607 q 190 601 242 601 q 311 601 398 611 l 417 601 l 402 532 q 319 526 291 526 q 205 526 160 531 q 157 501 151 455 l 144 393 q 158 396 191 398 q 224 401 244 401 q 302 401 346 373 q 389 345 410 302 q 431 259 431 208 q 431 149 403 98 q 375 48 324 17 q 273 -13 211 -13 q 177 -13 139 -3 q 101 7 73 26 q 46 44 46 65 q 46 82 59 94 q 73 107 94 107 q 132 107 151 69 q 160 52 177 41 q 194 31 207 31 q 249 31 282 74 q 316 117 316 186 z"}}}
